<svg xmlns="http://www.w3.org/2000/svg" xmlns:xlink="http://www.w3.org/1999/xlink" viewBox="0 0 150.15 27.7"><defs><style>.cls-1{fill:none;}.cls-2{fill:#002f7b;}.cls-3{fill:#b6002a;}.cls-4{fill:#fff;}.cls-5{fill:#00125e;}.cls-6{fill:#de5365;}.cls-7{clip-path:url(#clip-path);}.cls-8{fill:url(#未命名漸層);}.cls-9{clip-path:url(#clip-path-2);}.cls-10{fill:url(#未命名漸層_2);}.cls-11{clip-path:url(#clip-path-3);}.cls-12{fill:url(#未命名漸層_3);}.cls-13{clip-path:url(#clip-path-4);}.cls-14{fill:url(#未命名漸層_4);}.cls-15{clip-path:url(#clip-path-5);}.cls-16{fill:url(#未命名漸層_5);}.cls-17{clip-path:url(#clip-path-6);}.cls-18{fill:url(#未命名漸層_6);}.cls-19{clip-path:url(#clip-path-7);}.cls-20{fill:url(#未命名漸層_7);}</style><clipPath id="clip-path"><path class="cls-1" d="M13.59,6.41a3.18,3.18,0,0,1-1.14.13,2.46,2.46,0,0,0-1.23,0,5.18,5.18,0,0,0-1,.64c-.39.21-.82.07-1.21.28-.7.42-.67,1.51-1,2.17s-.21,1.9-.92,2.48a.24.24,0,0,1-.1,0H6.87c-.32,0-1.28-.55-1.71-.57-.22,0-.33.1-.54.12H4.09a2.71,2.71,0,0,0-.9.29,2.23,2.23,0,0,0-.73.55,2,2,0,0,0-.41.76c-.35.74-.71,1.06-.56,1.93a6.3,6.3,0,0,0,1.09,2.18c.49.76,1.49.85,2.18,1.5.24.26.54.54.75.8s.84.86.87,1.08A5.11,5.11,0,0,1,6,22.09c-.21.48-.45.61-.16,1.16s1.29,1.09,1.84,1.57c.75.66,1.86.4,2.78.26A4,4,0,0,0,13,24c.4-.38.56-.77,1.2-.58.47.16.65.52,1.17.58a7.77,7.77,0,0,1,1.35.22c.51.22.63.38,1.19.18s1.85-.54,2.31-1.23c.16-.19.14-.47.24-.64a4.47,4.47,0,0,1,.36-.49,3.42,3.42,0,0,0,0-1.4c-.07-.2-.31-.3-.37-.45s0-.46-.07-.67c-.2-.51-.68-1-.33-1.24a3,3,0,0,0,1.14-.25c.74-.42,1-1.31,1.56-1.85.37-.33.65-.46.82-1s.26-.87.4-1.31a1.57,1.57,0,0,0,.06-.28v-.62A1.74,1.74,0,0,0,23,12c-.42-.23-.64-.57-1-.75a11.88,11.88,0,0,0-1.3-.35,8.69,8.69,0,0,1-1.38-.16,3.06,3.06,0,0,0-1.28,0c-.49.05-.86.29-1-.34-.08-.4.08-.9,0-1.3-.11-.66-.5-1.75-1.13-2-.37-.19-.8-.09-1.21-.28a1.47,1.47,0,0,0-.86-.3h-.25"/></clipPath><radialGradient id="未命名漸層" cx="-102.03" cy="2923.64" r="1" gradientTransform="matrix(10.43, 0, 0, -10.43, 1076.57, 30499.44)" gradientUnits="userSpaceOnUse"><stop offset="0" stop-color="#fff"/><stop offset="0.07" stop-color="#fff"/><stop offset="0.26" stop-color="#fcecf0"/><stop offset="0.38" stop-color="#f9dde5"/><stop offset="0.62" stop-color="#eea7b3"/><stop offset="1" stop-color="#de5365"/></radialGradient><clipPath id="clip-path-2"><path class="cls-1" d="M13.79,6.4h-.2a3,3,0,0,1-1.14.12c-.06,0-.33,0-.42,0a2.27,2.27,0,0,0-.81.09,5.18,5.18,0,0,0-1,.64c-.39.21-.82.07-1.21.28-.7.42-.67,1.51-1,2.17S7.78,11,7.51,11.62a2.15,2.15,0,0,0,.13.64c.09.34.75.31.63.94l0,.13c.52,1.72,3.61,1.29,4.49.6.44-.33,1.3-.6,1.66-1s1.27-.71,1.52-1.1a4.48,4.48,0,0,0,.83-2.08,3.4,3.4,0,0,0-2.09-3c-.39-.18-.52-.31-.84-.31h-.08"/></clipPath><radialGradient id="未命名漸層_2" cx="-102.03" cy="2923.64" r="1" gradientTransform="matrix(8.01, 0, 0, -8.01, 829.02, 23423.78)" gradientUnits="userSpaceOnUse"><stop offset="0" stop-color="#de5365"/><stop offset="0.21" stop-color="#de5365"/><stop offset="0.3" stop-color="#e05b6d"/><stop offset="0.43" stop-color="#e47281"/><stop offset="0.6" stop-color="#eb96a3"/><stop offset="0.8" stop-color="#f5c8d2"/><stop offset="0.87" stop-color="#f9dde5"/><stop offset="1" stop-color="#f9dde5"/></radialGradient><clipPath id="clip-path-3"><path class="cls-1" d="M13.88,6.62a2.78,2.78,0,0,1-1.17.13h-.45a2.41,2.41,0,0,0-.83.09c-.4.12-.63.47-1,.64s-.86.06-1.25.29a3.22,3.22,0,0,0-1,2.16c0,.33.2.67.14,1.07-.2,1.73.3,1.33.65,2,.71,1.31.63,1.69.29,1.63.38.44.73,1,.45,1.41A4.88,4.88,0,0,0,13,15.55a7.84,7.84,0,0,0,1.46-1.16,22.92,22.92,0,0,0,1.15-2.07,4.69,4.69,0,0,0,1.15-2A2.54,2.54,0,0,0,15.13,7a4.16,4.16,0,0,0-1-.36,1.18,1.18,0,0,1-.21,0"/></clipPath><radialGradient id="未命名漸層_3" cx="-102.03" cy="2923.64" r="1" gradientTransform="matrix(8.93, 0, 0, -9.98, 924.28, 29198.62)" gradientUnits="userSpaceOnUse"><stop offset="0" stop-color="#de5365"/><stop offset="0.09" stop-color="#df596a"/><stop offset="0.21" stop-color="#e26a7a"/><stop offset="0.34" stop-color="#e88594"/><stop offset="0.48" stop-color="#efacb7"/><stop offset="0.64" stop-color="#f9dce4"/><stop offset="0.64" stop-color="#f9dde5"/><stop offset="0.79" stop-color="#fbe8ed"/><stop offset="1" stop-color="#fff"/></radialGradient><clipPath id="clip-path-4"><path class="cls-1" d="M12.34,17.44c-.73.17-2,0-2.67.44A3.88,3.88,0,0,0,8.3,19.39c-.65.72-1.38,1.38-1.78,1.95a2.32,2.32,0,0,0-.25,2.16,3.67,3.67,0,0,0,4.35,1.59c1.49-.31,3.31-.75,3.49-2.7a6.21,6.21,0,0,0,.07-2.9c-.24-.66-.3-2.1-1.44-2.1a1.51,1.51,0,0,0-.4.05"/></clipPath><radialGradient id="未命名漸層_4" cx="-102.03" cy="2923.64" r="1" gradientTransform="matrix(5.79, 0, 0, -5.79, 600.48, 16957.36)" gradientUnits="userSpaceOnUse"><stop offset="0" stop-color="#fff"/><stop offset="0.28" stop-color="#fbe9ee"/><stop offset="0.41" stop-color="#f9dde5"/><stop offset="0.57" stop-color="#f1b6c1"/><stop offset="1" stop-color="#de5365"/></radialGradient><clipPath id="clip-path-5"><path class="cls-1" d="M1.49,15a5.2,5.2,0,0,0,.88,2.11c.45.89.87.91,1.67,1.35A3.28,3.28,0,0,1,5.53,20c1,1.88,2.05.13,2.92-.56a2.76,2.76,0,0,0,.84-2.49,3.38,3.38,0,0,0-1-1.68l.27.2c-.36-.34-.08-.79-.24-1.22a13.32,13.32,0,0,0-.58-1.3c-.31-.63-.65-.46-1-.3s-.33.17-.46.13a11.64,11.64,0,0,1-1.38-.4,2.24,2.24,0,0,0-.79-.14A2.84,2.84,0,0,0,1.49,15"/></clipPath><radialGradient id="未命名漸層_5" cx="-102.03" cy="2923.64" r="1" gradientTransform="matrix(7.36, 0, 0, -7.82, 760.12, 22874.14)" gradientUnits="userSpaceOnUse"><stop offset="0" stop-color="#fff"/><stop offset="0.07" stop-color="#fff"/><stop offset="0.29" stop-color="#fcecf0"/><stop offset="0.43" stop-color="#f9dde5"/><stop offset="0.65" stop-color="#eea7b3"/><stop offset="1" stop-color="#de5365"/></radialGradient><clipPath id="clip-path-6"><path class="cls-1" d="M17.62,10.9a3.91,3.91,0,0,0-1.14.56c-.33.26-.53.89-.85,1.11-.77.32-.79.51-1.19,1.18s-.78,1.31-1.12,1.88a4.22,4.22,0,0,0,.06.64c.07.4.49,1,.49,1.31v-.14c.33,1.89,4.18,2.44,3.46,1.53-1.81-2.36,1-3.51,1.39-3.07,2.21,2.74,3.12,1.13,3.32.84A4.42,4.42,0,0,0,23,14.91c.7-3.92-1.49-3.35-2.73-3.91h-.2a3.28,3.28,0,0,1-1.17,0,.65.65,0,0,1-.23-.06l-.22,0a1.67,1.67,0,0,0-.39,0,2,2,0,0,0-.42,0"/></clipPath><radialGradient id="未命名漸層_6" cx="-102.03" cy="2923.64" r="1" gradientTransform="matrix(14.88, 0, 0, -14.88, 1545.22, 43515.95)" gradientUnits="userSpaceOnUse"><stop offset="0" stop-color="#de5365"/><stop offset="0.31" stop-color="#de5365"/><stop offset="0.4" stop-color="#e26979"/><stop offset="0.58" stop-color="#eda0ad"/><stop offset="0.76" stop-color="#f9dde5"/><stop offset="1" stop-color="#f9dde5"/></radialGradient><clipPath id="clip-path-7"><path class="cls-1" d="M17.23,18.66h0a0,0,0,0,0,0,0m-.78-7.22-.3.36a1.27,1.27,0,0,1-.54.59,1.51,1.51,0,0,0-.53.36,3.07,3.07,0,0,0-.39.52,1.46,1.46,0,0,1-1.18.45,1.47,1.47,0,0,1-.31,0,2.5,2.5,0,0,1-1.82.5c-.35-.12-.8-.73-1.14-.7s.19.24-.07.52-.67.06-.93-.2-.29-.35-.31-.34,0,.18,0,.28-.18.3-.2.49a1.66,1.66,0,0,0,0,.41,1,1,0,0,1,.08.44c0,.32,0,.22,0,.57,0,.63-.3.89-.45,1.57s.54,1.08-.34,2.4c-.29.44-1.62,1-1.53,1.57.37-.09.57-.49.85-.75a6.59,6.59,0,0,1,3.39-1.37c1.07,0,0,1.14.34,1.37s-.28.82,0,.66.79-1.67,1-2.07,1.8-4.11,1.85,1.75c0,.55.34.82.19,1.34-.07.27-1.07,1.67.55,1.52.22-1.23-.7-2.1-.22-2.7.24-.29,1.15-.36,1.13-.78,0-.9.4-.88.78-.86s.46,0,.56-.17a2.63,2.63,0,0,1,.28-.49s-.05,0-.06-.14c0-.39.32-.39.15-.78.39.1.5-.3.82-.37a2.17,2.17,0,0,1,.88,0c.53.07.81.95.91.9s-.18-.66-.47-.91a7.67,7.67,0,0,1-.67-.86c-.26-.36-.08-.82-.49-1a.5.5,0,0,0-.34,0,.91.91,0,0,1-.79-.19c-2.12,1.49-.33-.74-.46-1.3-.26-.73-.83-.92-.23-2.49a0,0,0,0,0,0,0h0"/></clipPath><radialGradient id="未命名漸層_7" cx="-102.03" cy="2923.64" r="1" gradientTransform="matrix(7.72, 0, 0, -7.72, 800.75, 22583.51)" gradientUnits="userSpaceOnUse"><stop offset="0" stop-color="#fff"/><stop offset="0.09" stop-color="#fff"/><stop offset="0.28" stop-color="#fbe9ee"/><stop offset="0.37" stop-color="#f9dde5"/><stop offset="0.48" stop-color="#f0b1bd"/><stop offset="0.59" stop-color="#e98997"/><stop offset="0.7" stop-color="#e36b7c"/><stop offset="0.79" stop-color="#df596b"/><stop offset="0.85" stop-color="#de5365"/><stop offset="1" stop-color="#de5365"/></radialGradient></defs><g id="圖層_2" data-name="圖層 2"><g id="圖層_1-2" data-name="圖層 1"><path class="cls-2" d="M147.73,15.53h0a6.92,6.92,0,0,1-9.23,10.29h0a6.92,6.92,0,1,0,9.24-10.3"/><path class="cls-2" d="M135.42,23.39c-.23.12-.28.31-.15.6s.25.35.44.31.15-.19.1-.51l0-.13a1.58,1.58,0,0,1,0-.55.44.44,0,0,1,.27-.31c.3-.1.59.07.77.51s.11.84-.28,1l-.1-.26c.27-.1.34-.32.2-.69s-.3-.41-.48-.34-.21.22-.13.55l0,.12v.11a1,1,0,0,1,0,.43.31.31,0,0,1-.22.26c-.3.13-.59,0-.74-.46s-.09-.73.24-.87Z"/><polygon class="cls-2" points="135.22 20.89 136.26 20.01 136.28 20.35 135.38 21.08 135.68 21.39 136.3 21.39 136.3 21.64 134.51 21.68 134.51 21.4 135.21 21.4 135.29 21.4 135.4 21.4 135.34 21.34 135.28 21.26 134.48 20.41 134.48 20.08 135.22 20.89"/><path class="cls-2" d="M136,18.13l.69.23-.09.26-.7-.26-1.22.4.1-.29.78-.24.08,0a.42.42,0,0,1,.13,0l-.15-.16-.47-.65.11-.28Z"/><polygon class="cls-2" points="137.21 14.84 136.83 15.32 137.97 16.25 137.7 16.56 136.58 15.66 136.18 16.12 135.93 15.89 136.96 14.66 137.21 14.84"/><polygon class="cls-2" points="139.64 13.18 138.74 13.69 138.93 14.04 139.75 13.54 139.91 13.79 139.08 14.29 139.31 14.66 140.22 14.12 140.4 14.4 139.09 15.16 138.21 13.63 139.48 12.89 139.64 13.18"/><path class="cls-2" d="M142.07,12.93a2.35,2.35,0,0,1-.18-.35,2.06,2.06,0,0,1-.09.41l-.07.35.53-.11Zm1,.93-.46,0-.22-.4-.73.13-.09.43-.45.12.46-1.95.44-.07Z"/><path class="cls-2" d="M146,14.43l-.39-.14.14-.53a1.63,1.63,0,0,1,.09-.26,2.31,2.31,0,0,1,.06-.27c0-.05.05-.15.09-.2v-.14a3.68,3.68,0,0,1-.24.39l-.1.17-.52.69-.32-.07-.11-.87a1.18,1.18,0,0,0,0-.16c0-.14,0-.21,0-.29v-.19l0,.19a6.23,6.23,0,0,0-.15.62l-.15.58-.41,0,.44-1.76.6.13.11.79a5.86,5.86,0,0,1,0,.59,3,3,0,0,1,.16-.3,1.81,1.81,0,0,1,.15-.19l.46-.68.56.2Z"/><path class="cls-2" d="M145.94,20.18a2.37,2.37,0,0,1,1.22-.53c.15,0,.34.06.34.27s-.19.35-.57.48a3.39,3.39,0,0,1-1.38.11,4.06,4.06,0,0,1,.39-.33m-7.28.63c-.3,0-.45-.14-.45-.4,0,0,0-.79,1.79-.91a4.56,4.56,0,0,1,.79,0l-.21.18-.11.09a2.84,2.84,0,0,1-1.81,1m3.9-2.93a12.84,12.84,0,0,0-1.07,1l-.48.46a4.83,4.83,0,0,0-1.15-.13,3.31,3.31,0,0,0-2,.6.7.7,0,0,0-.2.47c0,.42.48.63.64.69a2.09,2.09,0,0,0,2.11-.27,13.65,13.65,0,0,0,1.19-1,8.76,8.76,0,0,1,.9.27l.32.08c-.39.39-.8.8-1.2,1.13v0a3.43,3.43,0,0,1-1.47.95,1.44,1.44,0,0,1-.78-.05h0a1.38,1.38,0,0,0,1.14.37,2.93,2.93,0,0,0,1.68-.88l.79-.79.56-.54,1.12.3h0l-.71.69-.59.6A12.45,12.45,0,0,1,142,23a3.15,3.15,0,0,1-1.56.66,1.57,1.57,0,0,1-.83-.16h0a1.81,1.81,0,0,0,1.31.58,3.76,3.76,0,0,0,2.36-1.31c.47-.4.93-.88,1.31-1.27l.74-.74a6.83,6.83,0,0,0,1.41.12c.71,0,1.31-.32,1.31-.73a.53.53,0,0,0-.37-.5,1.3,1.3,0,0,0-.85-.26,2.61,2.61,0,0,0-1.64.69l-.37.34-.14,0-1-.31.78-.74a2.88,2.88,0,0,1,1.57-.73,1.86,1.86,0,0,1,.91.16l0,0a1.94,1.94,0,0,0-1.32-.5,2.74,2.74,0,0,0-1.62.67c-.28.22-.65.61-1.06,1l-.5-.16-.12,0-.57-.16.32-.29a12.65,12.65,0,0,1,1-.93,3.24,3.24,0,0,1,2-1,2.07,2.07,0,0,1,1.12.29h0a2.16,2.16,0,0,0-1.64-.68,3.2,3.2,0,0,0-2,1"/><path class="cls-2" d="M147,13.08s.09.08.11,0,0-.07-.06-.07L147,13l-.06.06Zm0,.26,0,0,0-.17,0,0-.07.11,0,0,.15-.28.12.07c.06,0,.09.06.06.14a.08.08,0,0,1-.13,0Zm.18-.11a.24.24,0,0,0-.09-.34.33.33,0,0,0-.36.13.26.26,0,0,0,.12.32.23.23,0,0,0,.33-.11m-.48-.21a.28.28,0,0,1,.38-.17.29.29,0,0,1-.23.53.25.25,0,0,1-.15-.36"/><path class="cls-3" d="M3.07,21.64a5.15,5.15,0,0,1-.54,3.87C1.46,26.83.42,25.36.17,24.3s-.26-3.26.6-4.2A.91.91,0,0,1,2,19.8a3,3,0,0,1,1.07,1.84"/><path class="cls-4" d="M2.07,23.08c0,.11-.08.34.14.38s.46.06.43.29c-.26,0-.46-.27-.76-.19a2.58,2.58,0,0,0-.46.18s0-.07,0-.11c.16-.11.39-.11.54-.25V23c.07-.12.16,0,.15.06"/><path class="cls-4" d="M2.31,23.93c.16.15,0,.34.07.54a4.18,4.18,0,0,0,.1,1.12.13.13,0,0,1-.06.13c-.06,0-.06-.06-.09-.06,0-.54-.09-1.05-.1-1.62,0-.13-.24,0-.33,0s-.09,0-.13,0a12.72,12.72,0,0,1-.1,1.65s0,0-.07,0l0-.06c0-.54,0-1.13.07-1.63A.34.34,0,0,1,2,23.88a1,1,0,0,1,.33.05"/><path class="cls-4" d="M1.15,24.82c0,.13,0,.25,0,.34a1.49,1.49,0,0,1,0,.36c0,.07-.05.13,0,.17h.06c.11,0,.09-.18.11-.28a1.83,1.83,0,0,0,0-.33c0-.23,0-.44,0-.63a.24.24,0,0,0,0-.13,2.09,2.09,0,0,0,0-.66c-.08-.2-.29-.2-.48-.24a.24.24,0,0,1-.06-.13c0-.12.15-.12.25-.12s.05,0,.07,0a.34.34,0,0,1,.14-.05A.08.08,0,0,0,1.27,23c-.08-.15-.17,0-.27,0s-.35,0-.38.23a.26.26,0,0,0,.07.21.21.21,0,0,0,.15.06c.12.06.28.07.33.17s0,.2,0,.21a.33.33,0,0,1,0,.14.75.75,0,0,1,0,.26s-.13,0-.18,0-.14,0-.18-.06A.86.86,0,0,1,.8,24c.11,0,.2,0,.31-.08a0,0,0,0,1,0,0v0h0c-.07-.09-.08,0-.18,0H.86c-.15,0,0-.18-.09-.27a.08.08,0,0,0-.08,0c-.09,0,0,.16,0,.28a3.1,3.1,0,0,1,0,.8c0,.1,0,.28,0,.39s0,.15,0,.18-.07.16,0,.23l.09-.1c0-.16.06-.34.08-.54s0-.06.06-.06.12.07.2.07,0-.09,0-.11S1,24.68.86,24.66s-.09,0-.08,0a1.48,1.48,0,0,1,0-.19.7.7,0,0,1,.25,0s.11,0,.12,0a1.16,1.16,0,0,1,0,.33"/><path class="cls-4" d="M2.69,21.67l-.13,0-.13-.09A3.1,3.1,0,0,1,2,21.29c-.1,0-.15.11-.25.17a0,0,0,0,1-.06,0c.05-.07.13-.11.19-.19s.09,0,.12-.06l.18.1c.08,0,.12.09.2.1a.85.85,0,0,0,.21.14s.15,0,.11.11Z"/><path class="cls-4" d="M2.48,20.39a.1.1,0,0,1-.12.09.22.22,0,0,0-.15,0s0,.06,0,.08.11.07.17.09a.13.13,0,0,1,0,.06H2.28c-.11,0-.21,0-.31,0h-.1l-.08,0c-.05,0-.16,0-.16,0a.71.71,0,0,0,0,.24c0,.05,0,.06,0,.09a2.17,2.17,0,0,0,.05.4s0,.06,0,.1.16,0,.2,0h.43a.06.06,0,0,1,0,.06.47.47,0,0,1-.19,0c-.14,0-.25,0-.43,0H1.06s-.05,0-.07,0a0,0,0,0,1,0,0h.26a.47.47,0,0,0,.22,0,.11.11,0,0,0,0-.07c0-.13,0-.24,0-.36s0-.18,0-.26,0-.21.05-.25l.21,0H2a.11.11,0,0,0,.12-.07.06.06,0,0,0-.06-.08c-.06,0-.06,0-.12,0s-.08,0-.11,0a.46.46,0,0,1-.07-.37s0,0,.06,0,0,.11,0,.16a.16.16,0,0,0,.1.18.14.14,0,0,0,.11,0c.07,0,0-.1.06-.17A.34.34,0,0,1,2.15,20s0,.06.05.06v0a1.26,1.26,0,0,0,0,.28s0,0,.07,0,.11,0,.12-.1,0-.2.06-.21,0,0,0,0Z"/><path class="cls-4" d="M2.47,21.21l-.08,0c-.06-.08-.24-.12-.31-.18S2,21,1.92,21a.15.15,0,0,1-.13.08s0,0-.07.05a.07.07,0,0,1,0,0s.07,0,.09-.07L2,20.91a1.24,1.24,0,0,0,.29.1c.06.09.16.1.2.15s0,.05,0,.05"/><path class="cls-4" d="M2.13,22.37a.53.53,0,0,1,0,.33s-.09,0-.12,0l-.23.05H1.55l-.38,0a.53.53,0,0,1-.2-.05s0,0,0-.05.07,0,.13,0h.71l.11,0c.12-.05.11-.05.14-.14s0-.13-.1-.16-.22,0-.3-.09,0-.17-.12-.24a1.32,1.32,0,0,1-.29,0H.84S.78,22,.83,22,.91,22,1,22h.42a2.81,2.81,0,0,0,.29,0H2a1.55,1.55,0,0,1,.21,0c.09,0,.13,0,.2,0s0,0,0,0a.05.05,0,0,1,0,.06c-.06,0-.13,0-.22,0s-.13,0-.21,0a.55.55,0,0,0-.18,0,.34.34,0,0,0-.14,0,.22.22,0,0,0,.06.14c.05,0,.15,0,.23.06s.14,0,.16.09"/><path class="cls-4" d="M1.56,20.11c0,.12,0,.3-.1.41a.35.35,0,0,0-.26.06c-.05.09,0,.14,0,.23s.12.14.17.2a.64.64,0,0,1,.06.1.06.06,0,0,1-.06,0h0l0,0S1.25,21,1.2,21s-.21.14-.34.22a.14.14,0,0,1-.11.07l-.06.08a.24.24,0,0,1-.15.06h0s.07-.05.09-.08.16-.2.28-.24.2-.11.23-.25a.47.47,0,0,0,0-.09c0-.06,0-.13-.05-.15a.45.45,0,0,1-.21-.07.46.46,0,0,1-.07-.45h0c.06,0,0,.08,0,.16s0,.17.08.19a.11.11,0,0,0,.1.08s.06,0,.06-.07,0-.18,0-.31a.09.09,0,0,1,0-.08l.07,0c0,.06,0,.13,0,.19s0,.15,0,.17.07.05.1,0a.15.15,0,0,0,.14-.14c0-.06,0-.17,0-.2v0a.12.12,0,0,1,.07.07"/><path class="cls-4" d="M1.37,21.51s0-.05-.05-.08-.11-.11-.18-.08a.21.21,0,0,1-.1.06,4.6,4.6,0,0,1-.35.31s0,0-.06,0l.14-.13s.06,0,.11-.07,0-.08.05-.09.13-.06.18-.14.07,0,.1,0,.11.09.15.14.09.09,0,.11"/><path class="cls-5" d="M129.44,17.48a4.13,4.13,0,0,0-2.53-.87c-1.23,0-1.88.39-1.88,1s.86,1,2.43,1.66c2.25,1,2.79,1.56,2.79,2.72,0,1.49-1.47,2.51-3.7,2.51a6.55,6.55,0,0,1-3.3-.94l.32-1.57h.13a3.85,3.85,0,0,0,2.87,1.22c1.15,0,2-.41,2-1.08s-.66-.92-2.42-1.64c-2-.84-2.82-1.53-2.82-2.8s1.15-2.3,3.63-2.3a7,7,0,0,1,2.94.7l-.31,1.41Zm-7.36,6.82.39-1.58-.1,0a3.43,3.43,0,0,1-1.75.42h-2.88V20.26H120a6.27,6.27,0,0,1,1.55.19l.34-1.33h-4.18V16.74h2.46A6.42,6.42,0,0,1,122,17l.35-1.41h-6.39c0,.48,0,1,0,1.46v5.81c0,.49,0,1,0,1.48Zm-8-8.75c0,.44-.07,1-.07,1.5v7.32h-.28l-6.16-6.24v4.69c0,.49,0,1,.07,1.48h-1.61c0-.51,0-1,0-1.48V16.59l-.91-.91v-.13h2.25l5.11,5.25V17c0-.45,0-1,0-1.46ZM103.84,24.3c0-.51-.07-1-.07-1.48V17c0-.43,0-1,.07-1.46H102c0,.48,0,1,0,1.46v5.81c0,.49,0,1,0,1.48Zm-3.29,0,.39-1.58-.13,0a3.42,3.42,0,0,1-1.72.42H97V17c0-.43,0-1,0-1.46H95.14c0,.48.08,1,.08,1.46v5.81c0,.49,0,1-.08,1.48ZM88.39,19.53h1c1.2,0,1.91-.47,1.91-1.5s-.69-1.36-1.92-1.36h-1ZM86.55,24.3c0-.51,0-1,0-1.48V17c0-.43,0-1,0-1.46H90c2,0,3.24,1,3.24,2.37A2.5,2.5,0,0,1,91,20.33l2.21,2.46a10.83,10.83,0,0,0,1.4,1.39v.12H92.29l-3.9-4.54v3.06c0,.49,0,1,.07,1.48Zm-2.23,0c0-.51-.08-1-.08-1.48V17c0-.43,0-1,.08-1.46H82.41c0,.48.07,1,.07,1.46v5.81c0,.49,0,1-.07,1.48Zm-8-6.54h.07l1.5,3h-3Zm5.4,6.54c-.35-.56-.68-1.15-1-1.68L76.66,15.1h-.4l-4.93,9.2h2a9.9,9.9,0,0,1,.49-1.18L74.31,22h4.22l.58,1.16a5.13,5.13,0,0,1,.47,1.14ZM63,17.76h.07l1.53,3h-3Zm5.43,6.54a17.69,17.69,0,0,1-1-1.68L63.32,15.1h-.41L58,24.3h2a12.21,12.21,0,0,1,.48-1.18L61,22H65.2l.57,1.16a4.33,4.33,0,0,1,.47,1.14ZM57.38,15.55c0,.44-.06,1-.06,1.5v7.32h-.26L50.9,18.13v4.69c0,.49,0,1,.06,1.48H49.34c0-.51,0-1,0-1.48V16.59l-.91-.91v-.13h2.24l5.11,5.25V17a12.35,12.35,0,0,0-.08-1.46ZM47.1,24.3c0-.51-.06-1-.06-1.48V17c0-.43,0-1,.06-1.46H45.2c0,.48.07,1,.07,1.46v5.81c0,.49,0,1-.07,1.48ZM43,24.3c0-.51-.06-1-.06-1.48V17c0-.43,0-1,.06-1.46H41.12c0,.48.05,1,.05,1.46v2.15H36.62V17c0-.43,0-1,.07-1.46H34.78c0,.48.07,1,.07,1.46v5.81c0,.49,0,1-.07,1.48h1.91c0-.51-.07-1-.07-1.48V20.48h4.55v2.34c0,.49,0,1-.05,1.48Zm-9.86-7-.07.07a5.19,5.19,0,0,0-2.49-.66A3.17,3.17,0,0,0,27.29,20a3.25,3.25,0,0,0,3.42,3.21,4.24,4.24,0,0,0,2.82-1l.08.07-.35,1.65a5.52,5.52,0,0,1-2.61.56c-2.88,0-5.28-1.71-5.28-4.54,0-2.54,2-4.57,5.23-4.57a7.21,7.21,0,0,1,2.87.58Z"/><path class="cls-6" d="M13.89,6.26a1.32,1.32,0,0,1,.56.19,1.81,1.81,0,0,0,.89.29,1.2,1.2,0,0,1,.62.14c.7.3,1.08,1.47,1.21,2.11a3.09,3.09,0,0,1,0,.68,1.39,1.39,0,0,0,0,.61c.07.33.21.33.3.33a1.26,1.26,0,0,0,.29,0H18a3,3,0,0,1,.58-.06,6.13,6.13,0,0,1,.76.07,3.47,3.47,0,0,0,.77.14,3.1,3.1,0,0,1,.6.05,7.83,7.83,0,0,1,1.31.36,1.47,1.47,0,0,1,.58.4c.15.11.29.24.46.36a1.59,1.59,0,0,1,1,2.13,3,3,0,0,0-.08.32c-.12.34-.2.66-.32,1a1.74,1.74,0,0,1-.62.81,2,2,0,0,1-.23.18,3.48,3.48,0,0,0-.6.81,3.05,3.05,0,0,1-1,1.08,2.32,2.32,0,0,1-1,.28h-.08c-.15.05,0,.42.15.62l.21.41a2,2,0,0,1,0,.4.61.61,0,0,0,0,.28c0,.05.06.08.11.13a.85.85,0,0,1,.25.36,3.11,3.11,0,0,1,0,1.46,2.1,2.1,0,0,1-.18.28,1,1,0,0,0-.18.19,1.34,1.34,0,0,0-.07.27,1.09,1.09,0,0,1-.17.44,3.66,3.66,0,0,1-1.92,1.08c-.15.08-.31.11-.45.18a1.65,1.65,0,0,1-.48.09,1.06,1.06,0,0,1-.51-.14,2.21,2.21,0,0,1-.29-.13,3.44,3.44,0,0,0-.86-.15c-.14,0-.29,0-.47,0a1.65,1.65,0,0,1-.72-.31s-.05-.05-.08-.07h0a.93.93,0,0,1-.67-.2,3.07,3.07,0,0,1-1.48,1.1,4.65,4.65,0,0,1-1.39.44.93.93,0,0,1-.29.07,3.49,3.49,0,0,1-1.21.19,2.37,2.37,0,0,1-.46,0A2.39,2.39,0,0,1,7.66,25a4.16,4.16,0,0,1-1-.7,3.23,3.23,0,0,1-1-1,.88.88,0,0,1,0-1A2.09,2.09,0,0,0,5.84,22a.33.33,0,0,1,0-.06,4.54,4.54,0,0,0,.39-1,1.69,1.69,0,0,1-.86-.86A5.53,5.53,0,0,0,5,19.44a1,1,0,0,0-.22-.24c-.07-.05-.15-.14-.16-.14a3.67,3.67,0,0,0-1-.63,4,4,0,0,1-.9-.55,2.16,2.16,0,0,1-.46-.61,5.56,5.56,0,0,1-.94-2,2,2,0,0,1,.26-1.41c.08-.15.14-.28.22-.41a1,1,0,0,1,.1-.21C2,13.18,2,13.08,2,13a1.46,1.46,0,0,1,.34-.56,2.3,2.3,0,0,1,.76-.58,2.91,2.91,0,0,1,1-.27,1.21,1.21,0,0,1,.3,0,.38.38,0,0,0,.18,0h0a.73.73,0,0,0,.2,0,.61.61,0,0,1,.34-.06h0c.31,0,1.4.55,1.71.57H7L7.06,12a1.34,1.34,0,0,0,.33-.44s0,0,0-.05h0a.28.28,0,0,1,0-.11s0-.09,0-.14a5.63,5.63,0,0,0,.14-.62,1.25,1.25,0,0,0,0-.19V10.4l0-.05a.25.25,0,0,0,0-.07v0h0a.1.1,0,0,1,0,0v0s0-.05,0-.06,0,0,0,0h0a.15.15,0,0,1,0-.07h0v0a.31.31,0,0,0,0-.07s0,0,0,0h0s0,0,0-.05v0s0,0,0-.06h0s0,0,0,0a5.94,5.94,0,0,0,.26-.78A2.16,2.16,0,0,1,9,7.42a1.81,1.81,0,0,1,.68-.18,1.84,1.84,0,0,0,.53-.1c.14-.09.24-.18.37-.26a2,2,0,0,1,.59-.4s.07,0,.09,0h.18s.05,0,.07,0h.85l.12,0h.22a2.06,2.06,0,0,0,.62-.12,3.5,3.5,0,0,1,.57-.07"/><g class="cls-7"><rect class="cls-8" x="1.34" y="6.4" width="22.67" height="19.08"/></g><g class="cls-9"><rect class="cls-10" x="7.51" y="6.4" width="9.33" height="8.65"/></g><g class="cls-11"><rect class="cls-12" x="8.13" y="6.59" width="9.15" height="9.72"/></g><g class="cls-13"><rect class="cls-14" x="5.99" y="17.39" width="8.52" height="8.2"/></g><g class="cls-15"><rect class="cls-16" x="1.48" y="12.21" width="8" height="9.65"/></g><g class="cls-17"><rect class="cls-18" x="13.32" y="10.86" width="10.36" height="9.03"/></g><g class="cls-19"><rect class="cls-20" x="6.41" y="11.44" width="13.65" height="12.38"/></g><path class="cls-4" d="M9.77,18.94c-.23-.16,0-.71.27-1s.66-.75.54-.8-.54.05-.69,0,.79-.42.89-.45-.66-.29-.94-.3-.87,0-.81-.08.38-.28.45-.35-.43-.31-.47-.45.11-.24.63-.12a9.24,9.24,0,0,0,1.2.12,2.22,2.22,0,0,1,.43.15c.09.06.16-.14.23-.1s.24.14.26,0a.66.66,0,0,0-.23-.42,2.15,2.15,0,0,1-.41-.5c0-.09-.13-.31,0-.34s.24,0,.32,0,.19-.24.39-.17a1.4,1.4,0,0,1,.33.22.34.34,0,0,0,.25,0c.08,0,.23-.18.39-.09s.47.35.72.28a.66.66,0,0,0,.51-.35,4,4,0,0,1,.41-.74c.08-.11.32-.29.28-.21a2.77,2.77,0,0,0-.26.85c0,.28,0,.34,0,.4a.24.24,0,0,0,.28,0c.11,0,.26-.16.27-.08s-.53.43-.69.61-.34.47-.26.61.4.06.57.06.49,0,.45.11-.62.44-.62.51.35.19.55.19a6,6,0,0,1,.83.14c.19,0,.33,0,.36.13s.11.18.05.2a3.08,3.08,0,0,1-.6-.11,5.78,5.78,0,0,0-.94-.18c-.16,0-.6,0-.68.14s.25.23.32.3.34.34.17.37-.3-.08-.37-.1a3,3,0,0,1-.39-.27c-.06,0-.35-.34-.47-.32a1.51,1.51,0,0,0-.59.17,1.79,1.79,0,0,0-.42.4c-.1.09-.48.34-.64.48s-1,.81-1.19.91-.56.29-.73.15"/><path class="cls-3" d="M12.28,13.78a.63.63,0,0,1,0-.44c0-.14.41-.8.81-.67.15.06.25.1.3.28a1,1,0,0,1-.13.9.68.68,0,0,1-1-.07"/><path class="cls-3" d="M10.47,14.63a.35.35,0,0,0,.27-.27c0-.14.34-.14.34-.2s-.28-.82-.45-.88-.26.06-.44.05-.27-.09-.35.08-.36.52-.19.79a1,1,0,0,0,.82.43"/><path class="cls-3" d="M14.82,15.24c-.06,0-.18.09-.24,0a2.85,2.85,0,0,1,.7-.59c.1-.09,0-.57.06-.71s.53-.47.74-.34a.47.47,0,0,1,.27.16,1.27,1.27,0,0,1,.1.59,1.41,1.41,0,0,1-.15.51c-.05.18-.36.14-.5.16s-.37-.12-.54,0-.37.14-.44.24"/><path class="cls-3" d="M12.71,15.87c.07-.11,0-.29,0-.38s.06-.25-.06-.32a1.46,1.46,0,0,0,0,.69s.05,0,.05,0"/><path class="cls-3" d="M8.44,16.48A1.15,1.15,0,0,1,9.26,16s-.08-.09-.11-.09a.89.89,0,0,1-.52-.34c-.28-.32-.44-.58-.9-.44s-.48.89-.34,1.29a.59.59,0,0,0,1,.1"/><path class="cls-3" d="M17.84,15.9c.49-.18.88.07.65.48-.14.18-.08.44-.22.62a.51.51,0,0,1-.58.2,1.66,1.66,0,0,1-.59-.31c-.14-.17-.19-.29-.43-.33-.41-.13-.84,0-1.23-.15.44-.24,1,0,1.43,0,.2,0,.33-.38,1-.49"/><path class="cls-3" d="M15.42,16.39a.26.26,0,0,0-.34,0,.79.79,0,0,0,.34,0"/><path class="cls-3" d="M9.42,17.79C9,17.27,8,18.28,8,18.33s-.23.2-.26.29.44.47.59.58.37.41.63.18.31-.38.38-.7a1.43,1.43,0,0,1,.39-.76,3.52,3.52,0,0,0,.65-.58c-.43,0-.6.31-.91.45"/><path class="cls-3" d="M16.07,15.52c-.09-.35-.7,0-.85,0,.18,0,.43,0,.65.05s.21,0,.2,0"/><path class="cls-3" d="M13.46,17.44c.18.11.24.35.41.44s.37.19.52.31.15.34,0,.43-.26-.3-.37,0-.48.47-.54.82-.22.53-.07.78a.47.47,0,0,0,.2.1,1.21,1.21,0,0,1,.36.1.56.56,0,0,0,.55.1.77.77,0,0,0,.42-.47,5.1,5.1,0,0,1-.11-.74c0-.25.12-.4,0-.67a1.16,1.16,0,0,0-.36-.41c-.14-.1-.18-.3-.28-.44s-.45-.49-.55-.59a.57.57,0,0,0-.39-.2,1,1,0,0,0-.55.36,5.36,5.36,0,0,1-.54.45c-.19.18-.14.45-.24.66a2.29,2.29,0,0,0-.24.59c.12,0,.21-.26.28-.36a1.06,1.06,0,0,1,.17-.23c.07-.1.18-.11.25-.15.23-.22.25-.48.39-.73a.68.68,0,0,1,.68-.15"/><path class="cls-3" d="M17.55,19.56c0-.12-.07-.27,0-.39a.78.78,0,0,0-.11-.47c-.09-.19-.38-.6-.63-.49-.08.05-.18.15-.28.11s-.16-.2-.33-.28a2.46,2.46,0,0,1-.44-.09,1.27,1.27,0,0,0-.32-.07c.11.22.44.33.61.47.35.29.19.65.16,1a.81.81,0,0,0,0,.43c.08.09.38.13.45.15s.42.16.58.07a.74.74,0,0,0,.29-.45"/><path class="cls-3" d="M13.52,23c.11,0,.26.11.5.19a1.74,1.74,0,0,0,.62.15,1,1,0,0,1,.6.37.82.82,0,0,1,0,.67,1.1,1.1,0,0,0-.19.91c.08.42.28.6-.05.56a3.92,3.92,0,0,1-.74-.19,1.09,1.09,0,0,1-.65-.33c-.2-.24-.32-.2-.66-.4s-.53-.62-.37-.79.68-.63.74-.72a1.84,1.84,0,0,1,.2-.42"/><path class="cls-3" d="M20.06,20.47c0-.09.23-.25.25-.33a2,2,0,0,0,0-.63c0-.16-.07-.32,0-.42A.94.94,0,0,1,21,19a3.61,3.61,0,0,0,.57.21c.17.09.66.34.75.53s.21.35.08.56-.14.34-.23.41a4.24,4.24,0,0,0-.5.44c-.13.18-.23.54-.39.62s-.51.19-.59.06a.78.78,0,0,1-.13-.45c0-.13.26-.28.19-.45s-.23-.21-.4-.27-.29-.11-.29-.2"/><path class="cls-3" d="M4.68,21.94c-.09-.1-.17-.18-.12-.28a3.44,3.44,0,0,0,.17-.46,4.84,4.84,0,0,0,0-.66,1,1,0,0,1,.09-.37c0-.09,0-.29.19-.37a1.46,1.46,0,0,1,.55,0,1,1,0,0,1,.61.29c.09.18.15.41.26.48s.44.23.46.26-.06.14-.19.33a2.49,2.49,0,0,0-.12.84c0,.11,0,.47-.15.58s-.34,0-.53-.11a2.33,2.33,0,0,1-.57-.29c-.1-.08-.1-.19-.17-.23s-.39.08-.48,0"/><path class="cls-3" d="M11.85,20a.91.91,0,0,1,0,.87,1.6,1.6,0,0,1-.42.26c-.08,0-.32.11-.45,0a.84.84,0,0,1-.33-.31.93.93,0,0,1,.1-.86c.12-.12.33-.14.48-.23a2.15,2.15,0,0,1,.35-.32c0,.14-.1.3,0,.4s.19.13.27.21"/><path class="cls-3" d="M14.85,17a1,1,0,0,0-.41-.06c.09.16.36.12.53.17a1,1,0,0,1,.18.15,2.35,2.35,0,0,1,.57.27.82.82,0,0,0,.56.12c.08,0,.21-.06.17-.14-.14-.29-.54-.19-.77-.35-.06,0-.06-.08-.17-.1s-.23,0-.3-.05-.24,0-.36,0"/><path class="cls-3" d="M12.88,14.44a1,1,0,0,1,0,.18,1.05,1.05,0,0,0,0,.6.44.44,0,0,0,0-.27,1.06,1.06,0,0,1,0-.29,1.62,1.62,0,0,0-.06-.22"/><path class="cls-3" d="M12.14,16.71c.07.09,0,.24-.1.29s-.17.15-.38.4a4.47,4.47,0,0,0-.5.56c-.07.07-.2.28-.25.23s.1-.33.13-.4a3.36,3.36,0,0,1,.36-.42c.07-.07.48-.37.46-.43s-.15,0-.21,0-.38.13-.46.16-.18,0-.07-.15.17-.12.23-.12.25,0,.28-.09.06-.15,0-.16-.11,0-.16,0l-.77-.12-.81-.19c-.11,0-.11-.1.05-.1s.48.05.59.05.25,0,.36,0a2.69,2.69,0,0,0,.56,0c.08,0,.23-.08.24-.17a.17.17,0,0,0,0-.2,1.32,1.32,0,0,1-.39-.37.85.85,0,0,0-.22-.31c-.07-.05-.2-.05-.25-.13s-.09-.27,0-.22a1.39,1.39,0,0,1,.4.21.9.9,0,0,0,.16.28,1.75,1.75,0,0,0,.34.29,1.16,1.16,0,0,1,.29.26h.45a1.55,1.55,0,0,1,.47.07c.05,0,.24.1.28.07s.23-.44.29-.49l.43-.55a1.29,1.29,0,0,1,.45-.38s.11.08,0,.18-.5.49-.56.58-.24.42-.29.51-.15.15-.13.18.26.11.3.15.19.29.09.37-.21,0-.3-.11-.12-.16-.22-.23-.21-.07-.38-.16a3.17,3.17,0,0,0-.65-.05c-.11,0-.32.12-.33.24a1,1,0,0,0,.24.49"/><path class="cls-3" d="M12.43,15.67c-.06,0-.25-.18-.32-.31a2.62,2.62,0,0,0-.25-.44c0-.08-.07-.2-.12-.25s-.26-.27-.2-.31.29.18.31.24a4.57,4.57,0,0,0,.29.42,3.73,3.73,0,0,0,.25.39c0,.08.1.26,0,.26"/><path class="cls-5" d="M56.34,5.41l.08-2.34a8.2,8.2,0,0,1,2,0c-.45.86-.47,2.24-2.06,2.35M54,6l-.13-.19c.22-.8-.55-2.11.93-2.37H55l.08,2.42A2.93,2.93,0,0,1,54,6M58.76,2a3.51,3.51,0,0,1-2.34.31L56.53.85A2,2,0,0,0,55.35,0c-.76.58-.06,1.76-.35,2.63a5.6,5.6,0,0,1-1.69.29c-.3,0-.55-.53-.86-.19a5.71,5.71,0,0,0,1.1,4.62c.51.12,1.09-.32,1.55-.28a39.17,39.17,0,0,0,.15,4.34l.18.17c1-1.34.68-3.12,1-4.73a6.19,6.19,0,0,1,2.46-.13L59.63,6c.33-.52-.3-.82-.43-1.23.43-.56,1.12-.92,1.14-1.67a3,3,0,0,0-1.58-1"/><path class="cls-5" d="M70.43,6.69c0-.25-.08-1.55,1.09-1.26,0,.3-.78,1.14-1.09,1.26m-1.26.15-1,0c.15-.26-.07-1.4.5-1.29l.53,0Zm4.94-.4a4.76,4.76,0,0,1-2,.25V6.61c.16-1,1.07-.8,1.57-1.26.1-.21.25-.31,0-.5-.71-.11-.67-.75-1.41-.77-.31,0-.21.4-.46.52a3.14,3.14,0,0,1-1.4,0c-.15-1.1,1.49-.21,1.94-.88.17-.31-.14-.46-.33-.6l-3,.41-.06-.07a1.61,1.61,0,0,1,1.41-.65l-.18.31a1.8,1.8,0,0,0,1.2-.54c1-.28,2.42.58,2.63-.75-.17-.7-1-.28-1.39-.33a1.41,1.41,0,0,0,.26-.6.83.83,0,0,0-.76-.59c-.62.17-.85.93-1.21,1.41l-1.71.12L69,.93c-.3-.47-.58-.45-1-.57-.62.36-.08,1.17-.07,1.67-.4.17-1,.1-1.33.47a1.24,1.24,0,0,0,.39.74c.39.27.86,0,1.25-.1.66.51-.46.37-.41.81s.93.17,1.36.2a.82.82,0,0,1,0,.7c-1.36.46-1.25-.77-2.2-.46-.37.21-.09.59-.14.85l-.61,0c-.21,0-.25.28-.25.43.2.38.63.44,1.08.39a1.69,1.69,0,0,1,.12,1c-.75.2-1.57.22-2.31.38,0,.29.09.34.19.58a.53.53,0,0,0,.67.28,16.62,16.62,0,0,1,3.42-.72l.1.12c0,.15.08.47,0,.57l-2.06.34c-.14.15,0,.22,0,.33.33,1,1.37.12,2,.47a11.84,11.84,0,0,0,.38,2.64c1.05-.54.61-1.86.85-2.83a7.56,7.56,0,0,1,2.27.19c.22-.21.61-.21.57-.63-.37-1.08-1.9-.46-2.77-.59l-.13-.11c0-.19-.09-.5.07-.64a15.15,15.15,0,0,1,3.77.19l.46-.31c.18-.14.29-.17.23-.43a1.53,1.53,0,0,0-.78-.48"/><path class="cls-5" d="M103,1.79a3,3,0,0,1-2.39.4c.07-.56-.25-.9-.49-1.32-.45-.2-.88-.48-1.21,0l.33,1.4c-.25.22-.66.22-.93.31-.57.07-1.58.49-1.58-.53-.23-.1-.4-.47-.69-.24-.1,1-.76,1.72-.6,2.69.16.27.25.76.68.67.58-.24.42-1,.73-1.44l1.24-.5c.49,0,1.22-.57,1.66.07a.8.8,0,0,0,.72-.07c.19-.45,1-.38,1.47-.29-.14.53-.87.82-1.07,1.18,1,.17,1.67-.65,2.55-.42a1.15,1.15,0,0,0,1.17-.17,1,1,0,0,0-.07-.87c-.65,0-.81-.91-1.52-.85"/><path class="cls-5" d="M82.92,2.33A1.47,1.47,0,0,0,84,2.3c.14-.26.4-.52.25-.87-.4-.27-.75-.86-1.28-.86-.48.34,0,1-.25,1.53Z"/><path class="cls-5" d="M86.2,3h.19c.37.11.51.41.67.71.37.11.45-.15.7-.37a1.28,1.28,0,0,0,0-1.16A1.53,1.53,0,0,0,86,1.6c-.29.57.61.82.2,1.35"/><path class="cls-5" d="M83.47,5.79l-.5.08c0-.37.1-1.06-.44-1.22-.22-.1-.34-.27-.39.15L82.33,6a1.31,1.31,0,0,1-.58.13,14.69,14.69,0,0,1,.15-2l1.52-.64.09.14c-.09.74,0,1.39,0,2.14m1.89.88c.12-.25.35-.24.25-.57-.16-.55-.78-.37-1.22-.62-.15-.8.68-1.25.65-2-.21-.56-.83-.7-1.38-.85L82,3.32a1.67,1.67,0,0,0-.73-.66,21.81,21.81,0,0,0,0,3.34l-.17.26a9.6,9.6,0,0,0-1.86.59c-.12.28.05.33.16.55.48.16,1-.08,1.54-.08.08.37-.12.84-.07,1.21-.13.4-.22.9-.59,1l-.13,1.07c0,.17,0,.4.21.4,1.13-.94.91-2.65,1.2-3.92.34.29.29,1.12.66,1.46.3.09.2-.15.33-.36s0-.85-.21-1.14c.08-.19.87-.15,1-.23a5.8,5.8,0,0,1,0,2c-.15.73-1.17.07-1.61,0,0,.2.19.29.19.44.91.37.41,1.81,1.6,1.76a2.6,2.6,0,0,0,.82-.86,17.42,17.42,0,0,1,0-3.39c.29,0,.72.12,1-.07"/><path class="cls-5" d="M85,5a27,27,0,0,1,4.59-.31.57.57,0,0,0,.29-.52c-.17-.23-.46-.76-.87-.66-1.34.44-2.81.59-4.17.89-.09.28.08.43.16.6"/><path class="cls-5" d="M99.28,4.83l.07-.52c-.15-.57-.6-.6-1.1-.65a23.24,23.24,0,0,1-2.93,4.16,9.25,9.25,0,0,0,4-3"/><path class="cls-5" d="M101.73,4.74c-.48.14-1-.26-1.34-.08.19.32,1,.33.59.77l.42,0a2.26,2.26,0,0,1,1.33,1.26,1.06,1.06,0,0,0,1.08-.38c.15-.29.09-.38,0-.73-.51-.62-1.25-1.46-2.09-.82"/><path class="cls-5" d="M89.58,9.54a1.06,1.06,0,0,1-1.32-.32,4.43,4.43,0,0,1,.35-3.39l-.11-.21c-.49-.94-1.29,0-2-.07-.27-.13-.58-.28-.73.07a5.07,5.07,0,0,1-.32,2.51c-.22.37-.44,1-.89,1v.38c0,.26.07.49.36.49a4.78,4.78,0,0,0,1.36-1.92c.24-.66.3-1.36.53-2,.18,0,.5-.15.64,0-.26,1.6-.94,3.81.59,4.89a3.3,3.3,0,0,0,3.09-.45c.41-1.19-.45-2.18-.59-3.22-.15.76-.11,1.86-.93,2.22"/><path class="cls-5" d="M102.35,9.09a3.52,3.52,0,0,1-2.18.21,6.08,6.08,0,0,1,.13-1.6l1.4-.15c.31-.15.57-.41.44-.76a2,2,0,0,0-1-.61c-.93.68-2.17.61-3.27.8-.07.68.65.82,1.18,1.07-.17.39.06,1.28-.17,1.69a6.29,6.29,0,0,0-2,.37c-.21.1-.15.3-.09.48.23.25.48.55.85.51a19.15,19.15,0,0,1,5.5-.07,1,1,0,0,0,.49-1.21,4.32,4.32,0,0,0-1.26-.73"/></g></g></svg>